# xmcd CD database file generated by OrangeCD 6.5
#
# Track frame offsets:
#	150
#	17117
#	37269
#	53853
#	66847
#	86263
#	98562
#	114767
#	129900
#
# Disc length: 1957 seconds
#
# Revision: 0
# Processed by: cddbd v1.5.2PL0 Copyright (c) Steve Scherf et al.
# Submitted via: OrangeCD 6.5
#
DISCID=6907a309
DTITLE=Ken Tizzard With Bad Intent - The Goodness of Bad Intent, Vol. II
DYEAR=2013
DGENRE=
TTITLE0=Time To Remember
TTITLE1=Someone To Stand Beside Me
TTITLE2=Other Side Of Wrong 
TTITLE3=Feel A Whole Lot Better
TTITLE4=Dont Be Surprised
TTITLE5=Where Were You
TTITLE6=If You Were Wrong
TTITLE7=For You
TTITLE8=King Is Gone
EXTD=
EXTT0=
EXTT1=
EXTT2=
EXTT3=
EXTT4=
EXTT5=
EXTT6=
EXTT7=
EXTT8=
PLAYORDER=
